<svg width="300" height="300" viewBox="0 0 300 300" fill="none" xmlns="http://www.w3.org/2000/svg">
<g clip-path="url(#clip0_494_12569)">
<g opacity="0.5" clip-path="url(#clip1_494_12569)">
<line x1="4.60003" y1="-0.5" x2="4.60002" y2="299.5" stroke="black" stroke-width="0.2"/>
<line x1="9.60005" y1="-0.5" x2="9.60003" y2="299.5" stroke="black" stroke-width="0.2"/>
<line x1="14.6001" y1="-0.5" x2="14.6" y2="299.5" stroke="black" stroke-width="0.2"/>
<line x1="19.6001" y1="-0.5" x2="19.6" y2="299.5" stroke="black" stroke-width="0.2"/>
<line x1="24.6001" y1="-0.5" x2="24.6001" y2="299.5" stroke="black" stroke-width="0.2"/>
<line x1="29.6001" y1="-0.5" x2="29.6001" y2="299.5" stroke="black" stroke-width="0.2"/>
<line x1="34.6001" y1="-0.5" x2="34.6001" y2="299.5" stroke="black" stroke-width="0.2"/>
<line x1="39.6001" y1="-0.5" x2="39.6001" y2="299.5" stroke="black" stroke-width="0.2"/>
<line x1="44.6001" y1="-0.5" x2="44.6001" y2="299.5" stroke="black" stroke-width="0.2"/>
<line x1="49.6001" y1="-0.5" x2="49.6001" y2="299.5" stroke="black" stroke-width="0.2"/>
<line x1="54.6002" y1="-0.5" x2="54.6001" y2="299.5" stroke="black" stroke-width="0.2"/>
<line x1="59.6002" y1="-0.5" x2="59.6001" y2="299.5" stroke="black" stroke-width="0.2"/>
<line x1="64.6002" y1="-0.5" x2="64.6002" y2="299.5" stroke="black" stroke-width="0.2"/>
<line x1="69.6002" y1="-0.5" x2="69.6002" y2="299.5" stroke="black" stroke-width="0.2"/>
<line x1="74.6002" y1="-0.5" x2="74.6002" y2="299.5" stroke="black" stroke-width="0.2"/>
<line x1="79.6002" y1="-0.5" x2="79.6002" y2="299.5" stroke="black" stroke-width="0.2"/>
<line x1="84.6002" y1="-0.5" x2="84.6002" y2="299.5" stroke="black" stroke-width="0.2"/>
<line x1="89.6002" y1="-0.5" x2="89.6002" y2="299.5" stroke="black" stroke-width="0.2"/>
<line x1="94.6003" y1="-0.5" x2="94.6003" y2="299.5" stroke="black" stroke-width="0.2"/>
<line x1="99.6003" y1="-0.5" x2="99.6003" y2="299.5" stroke="black" stroke-width="0.2"/>
<line x1="104.6" y1="-0.5" x2="104.6" y2="299.5" stroke="black" stroke-width="0.2"/>
<line x1="109.6" y1="-0.5" x2="109.6" y2="299.5" stroke="black" stroke-width="0.2"/>
<line x1="114.6" y1="-0.5" x2="114.6" y2="299.5" stroke="black" stroke-width="0.2"/>
<line x1="119.6" y1="-0.5" x2="119.6" y2="299.5" stroke="black" stroke-width="0.2"/>
<line x1="124.6" y1="-0.5" x2="124.6" y2="299.5" stroke="black" stroke-width="0.2"/>
<line x1="129.6" y1="-0.5" x2="129.6" y2="299.5" stroke="black" stroke-width="0.2"/>
<line x1="134.6" y1="-0.5" x2="134.6" y2="299.5" stroke="black" stroke-width="0.2"/>
<line x1="139.6" y1="-0.5" x2="139.6" y2="299.5" stroke="black" stroke-width="0.2"/>
<line x1="144.6" y1="-0.5" x2="144.6" y2="299.5" stroke="black" stroke-width="0.2"/>
<line x1="149.6" y1="-0.5" x2="149.6" y2="299.5" stroke="black" stroke-width="0.2"/>
<line x1="154.6" y1="-0.5" x2="154.6" y2="299.5" stroke="black" stroke-width="0.2"/>
<line x1="159.6" y1="-0.5" x2="159.6" y2="299.5" stroke="black" stroke-width="0.2"/>
<line x1="164.6" y1="-0.5" x2="164.6" y2="299.5" stroke="black" stroke-width="0.2"/>
<line x1="169.6" y1="-0.5" x2="169.6" y2="299.5" stroke="black" stroke-width="0.2"/>
<line x1="174.6" y1="-0.5" x2="174.6" y2="299.5" stroke="black" stroke-width="0.2"/>
<line x1="179.601" y1="-0.5" x2="179.601" y2="299.5" stroke="black" stroke-width="0.2"/>
<line x1="184.601" y1="-0.5" x2="184.601" y2="299.5" stroke="black" stroke-width="0.2"/>
<line x1="189.601" y1="-0.5" x2="189.601" y2="299.5" stroke="black" stroke-width="0.2"/>
<line x1="194.601" y1="-0.5" x2="194.601" y2="299.5" stroke="black" stroke-width="0.2"/>
<line x1="199.601" y1="-0.5" x2="199.601" y2="299.5" stroke="black" stroke-width="0.2"/>
<line x1="204.601" y1="-0.5" x2="204.601" y2="299.5" stroke="black" stroke-width="0.2"/>
<line x1="209.601" y1="-0.5" x2="209.601" y2="299.5" stroke="black" stroke-width="0.2"/>
<line x1="214.601" y1="-0.5" x2="214.601" y2="299.5" stroke="black" stroke-width="0.2"/>
<line x1="219.601" y1="-0.5" x2="219.601" y2="299.5" stroke="black" stroke-width="0.2"/>
<line x1="224.601" y1="-0.5" x2="224.601" y2="299.5" stroke="black" stroke-width="0.2"/>
<line x1="229.601" y1="-0.5" x2="229.601" y2="299.5" stroke="black" stroke-width="0.2"/>
<line x1="234.601" y1="-0.5" x2="234.601" y2="299.5" stroke="black" stroke-width="0.2"/>
<line x1="239.601" y1="-0.5" x2="239.601" y2="299.5" stroke="black" stroke-width="0.2"/>
<line x1="244.601" y1="-0.5" x2="244.601" y2="299.5" stroke="black" stroke-width="0.2"/>
<line x1="249.601" y1="-0.5" x2="249.601" y2="299.5" stroke="black" stroke-width="0.2"/>
<line x1="254.601" y1="-0.5" x2="254.601" y2="299.5" stroke="black" stroke-width="0.2"/>
<line x1="259.601" y1="-0.5" x2="259.601" y2="299.5" stroke="black" stroke-width="0.2"/>
<line x1="264.601" y1="-0.5" x2="264.601" y2="299.5" stroke="black" stroke-width="0.2"/>
<line x1="269.601" y1="-0.5" x2="269.601" y2="299.5" stroke="black" stroke-width="0.2"/>
<line x1="274.601" y1="-0.5" x2="274.601" y2="299.5" stroke="black" stroke-width="0.2"/>
<line x1="279.601" y1="-0.5" x2="279.601" y2="299.5" stroke="black" stroke-width="0.2"/>
<line x1="284.601" y1="-0.5" x2="284.601" y2="299.5" stroke="black" stroke-width="0.2"/>
<line x1="289.601" y1="-0.5" x2="289.601" y2="299.5" stroke="black" stroke-width="0.2"/>
<line x1="294.601" y1="-0.5" x2="294.601" y2="299.5" stroke="black" stroke-width="0.2"/>
</g>
<g opacity="0.5" clip-path="url(#clip2_494_12569)">
<line x1="299.5" y1="4.60006" x2="-0.5" y2="4.60003" stroke="black" stroke-width="0.2"/>
<line x1="299.5" y1="9.60009" x2="-0.5" y2="9.60006" stroke="black" stroke-width="0.2"/>
<line x1="299.5" y1="14.6001" x2="-0.5" y2="14.6001" stroke="black" stroke-width="0.2"/>
<line x1="299.5" y1="19.6002" x2="-0.5" y2="19.6001" stroke="black" stroke-width="0.2"/>
<line x1="299.5" y1="24.6002" x2="-0.5" y2="24.6002" stroke="black" stroke-width="0.2"/>
<line x1="299.5" y1="29.6002" x2="-0.5" y2="29.6002" stroke="black" stroke-width="0.2"/>
<line x1="299.5" y1="34.6002" x2="-0.5" y2="34.6002" stroke="black" stroke-width="0.2"/>
<line x1="299.5" y1="39.6003" x2="-0.5" y2="39.6002" stroke="black" stroke-width="0.2"/>
<line x1="299.5" y1="44.6003" x2="-0.5" y2="44.6003" stroke="black" stroke-width="0.2"/>
<line x1="299.5" y1="49.6003" x2="-0.5" y2="49.6003" stroke="black" stroke-width="0.2"/>
<line x1="299.5" y1="54.6004" x2="-0.5" y2="54.6003" stroke="black" stroke-width="0.2"/>
<line x1="299.5" y1="59.6004" x2="-0.5" y2="59.6004" stroke="black" stroke-width="0.2"/>
<line x1="299.5" y1="64.6004" x2="-0.5" y2="64.6004" stroke="black" stroke-width="0.2"/>
<line x1="299.5" y1="69.6005" x2="-0.5" y2="69.6004" stroke="black" stroke-width="0.2"/>
<line x1="299.5" y1="74.6005" x2="-0.5" y2="74.6005" stroke="black" stroke-width="0.2"/>
<line x1="299.5" y1="79.6005" x2="-0.5" y2="79.6005" stroke="black" stroke-width="0.2"/>
<line x1="299.5" y1="84.6005" x2="-0.5" y2="84.6005" stroke="black" stroke-width="0.2"/>
<line x1="299.5" y1="89.6006" x2="-0.5" y2="89.6005" stroke="black" stroke-width="0.2"/>
<line x1="299.5" y1="94.6006" x2="-0.5" y2="94.6006" stroke="black" stroke-width="0.2"/>
<line x1="299.5" y1="99.6006" x2="-0.5" y2="99.6006" stroke="black" stroke-width="0.2"/>
<line x1="299.5" y1="104.601" x2="-0.5" y2="104.601" stroke="black" stroke-width="0.2"/>
<line x1="299.5" y1="109.601" x2="-0.5" y2="109.601" stroke="black" stroke-width="0.2"/>
<line x1="299.5" y1="114.601" x2="-0.5" y2="114.601" stroke="black" stroke-width="0.2"/>
<line x1="299.5" y1="119.601" x2="-0.5" y2="119.601" stroke="black" stroke-width="0.2"/>
<line x1="299.5" y1="124.601" x2="-0.5" y2="124.601" stroke="black" stroke-width="0.2"/>
<line x1="299.5" y1="129.601" x2="-0.5" y2="129.601" stroke="black" stroke-width="0.2"/>
<line x1="299.5" y1="134.601" x2="-0.5" y2="134.601" stroke="black" stroke-width="0.2"/>
<line x1="299.5" y1="139.601" x2="-0.5" y2="139.601" stroke="black" stroke-width="0.2"/>
<line x1="299.5" y1="144.601" x2="-0.5" y2="144.601" stroke="black" stroke-width="0.2"/>
<line x1="299.5" y1="149.601" x2="-0.5" y2="149.601" stroke="black" stroke-width="0.2"/>
<line x1="299.5" y1="154.601" x2="-0.5" y2="154.601" stroke="black" stroke-width="0.2"/>
<line x1="299.5" y1="159.601" x2="-0.5" y2="159.601" stroke="black" stroke-width="0.2"/>
<line x1="299.5" y1="164.601" x2="-0.5" y2="164.601" stroke="black" stroke-width="0.2"/>
<line x1="299.5" y1="169.601" x2="-0.5" y2="169.601" stroke="black" stroke-width="0.2"/>
<line x1="299.5" y1="174.601" x2="-0.5" y2="174.601" stroke="black" stroke-width="0.2"/>
<line x1="299.5" y1="179.601" x2="-0.5" y2="179.601" stroke="black" stroke-width="0.2"/>
<line x1="299.5" y1="184.601" x2="-0.5" y2="184.601" stroke="black" stroke-width="0.2"/>
<line x1="299.5" y1="189.601" x2="-0.5" y2="189.601" stroke="black" stroke-width="0.2"/>
<line x1="299.5" y1="194.601" x2="-0.5" y2="194.601" stroke="black" stroke-width="0.2"/>
<line x1="299.5" y1="199.601" x2="-0.5" y2="199.601" stroke="black" stroke-width="0.2"/>
<line x1="299.5" y1="204.601" x2="-0.5" y2="204.601" stroke="black" stroke-width="0.2"/>
<line x1="299.5" y1="209.601" x2="-0.5" y2="209.601" stroke="black" stroke-width="0.2"/>
<line x1="299.5" y1="214.601" x2="-0.5" y2="214.601" stroke="black" stroke-width="0.2"/>
<line x1="299.5" y1="219.601" x2="-0.5" y2="219.601" stroke="black" stroke-width="0.2"/>
<line x1="299.5" y1="224.601" x2="-0.5" y2="224.601" stroke="black" stroke-width="0.2"/>
<line x1="299.5" y1="229.601" x2="-0.5" y2="229.601" stroke="black" stroke-width="0.2"/>
<line x1="299.5" y1="234.601" x2="-0.5" y2="234.601" stroke="black" stroke-width="0.2"/>
<line x1="299.5" y1="239.601" x2="-0.5" y2="239.601" stroke="black" stroke-width="0.2"/>
<line x1="299.5" y1="244.602" x2="-0.5" y2="244.601" stroke="black" stroke-width="0.2"/>
<line x1="299.5" y1="249.602" x2="-0.5" y2="249.602" stroke="black" stroke-width="0.2"/>
<line x1="299.5" y1="254.602" x2="-0.5" y2="254.602" stroke="black" stroke-width="0.2"/>
<line x1="299.5" y1="259.602" x2="-0.5" y2="259.602" stroke="black" stroke-width="0.2"/>
<line x1="299.5" y1="264.602" x2="-0.5" y2="264.602" stroke="black" stroke-width="0.2"/>
<line x1="299.5" y1="269.602" x2="-0.5" y2="269.602" stroke="black" stroke-width="0.2"/>
<line x1="299.5" y1="274.602" x2="-0.5" y2="274.602" stroke="black" stroke-width="0.2"/>
<line x1="299.5" y1="279.602" x2="-0.5" y2="279.602" stroke="black" stroke-width="0.2"/>
<line x1="299.5" y1="284.602" x2="-0.5" y2="284.602" stroke="black" stroke-width="0.2"/>
<line x1="299.5" y1="289.602" x2="-0.5" y2="289.602" stroke="black" stroke-width="0.2"/>
<line x1="299.5" y1="294.602" x2="-0.5" y2="294.602" stroke="black" stroke-width="0.2"/>
</g>
</g>
<defs>
<clipPath id="clip0_494_12569">
<rect width="300" height="300" fill="white"/>
</clipPath>
<clipPath id="clip1_494_12569">
<rect width="300" height="300" fill="white" transform="translate(-0.5 -0.5)"/>
</clipPath>
<clipPath id="clip2_494_12569">
<rect width="300" height="300" fill="white" transform="translate(-0.5 -0.5)"/>
</clipPath>
</defs>
</svg>
