<svg width="24" height="24" viewBox="0 0 24 24" fill="none" xmlns="http://www.w3.org/2000/svg">
<g clip-path="url(#clip0_5_437)">
<path d="M0.75 9L1.7865 22.1287C1.81065 22.434 1.94897 22.719 2.17389 22.9268C2.3988 23.1346 2.69378 23.25 3 23.25H21C21.3063 23.25 21.6013 23.1345 21.8262 22.9266C22.0512 22.7188 22.1894 22.4337 22.2135 22.1284L23.25 9H0.75Z" fill="#F9D266"/>
<path d="M22.2135 22.1284L23.25 9H1.875L2.9115 22.1287C2.93565 22.434 3.07397 22.719 3.29889 22.9268C3.5238 23.1346 3.81878 23.25 4.125 23.25H21C21.3063 23.25 21.6013 23.1345 21.8262 22.9266C22.0512 22.7188 22.1894 22.4337 22.2135 22.1284V22.1284Z" fill="#FCE797"/>
<path d="M1.04626 12.75H22.9538L23.0723 11.25H0.927765L1.04626 12.75Z" fill="#A37454"/>
<path d="M2.17126 12.75H22.9538L23.0295 11.7904L23.0723 11.25H2.05276L2.17126 12.75Z" fill="#CE9A6B"/>
<path d="M16.5 20.25V11.25C16.5001 10.7557 16.3942 10.2671 16.1895 9.81713L13.0605 2.93288C12.9679 2.72927 12.8187 2.55661 12.6306 2.43552C12.4426 2.31443 12.2237 2.25003 12 2.25C11.7763 2.25003 11.5574 2.31443 11.3694 2.43552C11.1813 2.55661 11.0321 2.72927 10.9395 2.93288L7.8105 9.81713C7.60583 10.2671 7.49995 10.7557 7.5 11.25V20.25H6V11.2024C5.99985 10.7386 6.09294 10.2795 6.27375 9.85238L9.3945 2.47613C9.61123 1.96429 9.97392 1.52764 10.4373 1.22066C10.9007 0.913682 11.4442 0.749984 12 0.75C12.5559 0.750046 13.0995 0.913855 13.5629 1.22097C14.0262 1.52809 14.3889 1.9649 14.6055 2.47688L17.7263 9.85312C17.9071 10.2802 18.0001 10.7393 18 11.2031V20.25H16.5Z" fill="#A37454"/>
<path d="M14.6055 3.22688C14.3891 2.71442 14.0265 2.27712 13.563 1.96965C13.0994 1.66218 12.5555 1.4982 11.9993 1.4982C11.443 1.4982 10.8991 1.66218 10.4355 1.96965C9.97198 2.27712 9.60935 2.71442 9.393 3.22688L6.27375 10.6031C6.09294 11.0302 5.99985 11.4893 6 11.9531V20.25H7.5V11.25C7.49995 10.7557 7.60583 10.2671 7.8105 9.81713L10.9395 2.93288C11.032 2.7292 11.1812 2.55647 11.3693 2.43533C11.5573 2.31419 11.7763 2.24977 12 2.24977C12.2237 2.24977 12.4427 2.31419 12.6307 2.43533C12.8188 2.55647 12.968 2.7292 13.0605 2.93288L16.1895 9.81713C16.3942 10.2671 16.5001 10.7557 16.5 11.25V20.25H18V11.9524C18.0001 11.4886 17.9071 11.0295 17.7263 10.6024L14.6055 3.22688Z" fill="#A37454"/>
<path d="M1.7865 22.1284C1.81056 22.4337 1.94885 22.7188 2.17377 22.9266C2.39869 23.1345 2.69372 23.25 3 23.25H21C21.3063 23.25 21.6013 23.1345 21.8262 22.9266C22.0512 22.7188 22.1894 22.4337 22.2135 22.1284L22.3635 20.25H1.638L1.7865 22.1284Z" fill="#CE9A6B"/>
</g>
<defs>
<clipPath id="clip0_5_437">
<rect width="24" height="24" fill="white"/>
</clipPath>
</defs>
</svg>
