<svg width="24" height="24" viewBox="0 0 24 24" fill="none" xmlns="http://www.w3.org/2000/svg">
<path d="M12.0017 0L17.8429 3.00611L23.7084 5.98778L17.8429 8.99389L12.0017 12L6.16058 8.99389L0.295 5.98778L6.16058 3.00611L12.0017 0Z" fill="#D9AC80"/>
<path d="M19.3092 10.9735V8.2607L16.3765 9.75153V12.4644L17.9895 10.4847L19.3092 10.9735Z" fill="#CE9A6B"/>
<path d="M12.0017 12V24L23.7085 18.0122V5.98778L19.3093 8.26069L19.2115 8.30957V10.9491L17.9895 10.4847L16.3765 12.4644V9.75153L12.0017 12Z" fill="#A37454"/>
<path d="M12.0017 24V12L6.16058 8.99389L0.295 5.98778V18.0122L12.0017 24Z" fill="#7A4C2C"/>
<path d="M4.69418 3.73931L16.3765 9.75152L19.2115 8.30957L19.3093 8.26069L7.62697 2.24847L6.16057 3.00611L4.69418 3.73931Z" fill="#FCE797"/>
</svg>
