<svg width="24" height="24" viewBox="0 0 24 24" fill="none" xmlns="http://www.w3.org/2000/svg">
<g clip-path="url(#clip0_5_438)">
<path d="M17.936 16.817C18.1059 17.2098 17.9251 17.6658 17.5326 17.8352C17.1398 18.0057 16.6841 17.8247 16.5141 17.4319C15.7671 15.7046 14.0015 14.5882 12.0155 14.5882C9.98373 14.5882 8.20736 15.7038 7.49051 17.4298C7.36656 17.7278 7.07811 17.9076 6.77469 17.9076C6.67553 17.9076 6.57508 17.8887 6.47772 17.8484C6.08263 17.6839 5.89541 17.2305 6.05939 16.8356C7.01743 14.5291 9.35545 13.0389 12.0152 13.0389C14.6195 13.0394 16.9436 14.5221 17.936 16.817ZM6.63137 7.69374C6.63137 6.80981 7.34848 6.09245 8.23266 6.09245C9.11659 6.09245 9.8337 6.80955 9.8337 7.69374C9.8337 8.57844 9.11659 9.29554 8.23266 9.29554C7.34848 9.29529 6.63137 8.57818 6.63137 7.69374ZM13.8921 7.69374C13.8921 6.80981 14.6097 6.09245 15.4939 6.09245C16.3778 6.09245 17.0949 6.80955 17.0949 7.69374C17.0949 8.57844 16.378 9.29554 15.4939 9.29554C14.6097 9.29554 13.8921 8.57818 13.8921 7.69374Z" fill="#B0B0B0"/>
</g>
<defs>
<clipPath id="clip0_5_438">
<rect width="12" height="12" fill="white" transform="translate(6 6)"/>
</clipPath>
</defs>
</svg>
