<svg width="24" height="24" viewBox="0 0 24 24" fill="none" xmlns="http://www.w3.org/2000/svg">
<rect width="24" height="24" fill="white"/>
<path d="M23.2941 3H0.705882C0.316034 3 0 3.30996 0 3.69231V20.3077C0 20.69 0.316034 21 0.705882 21H23.2941C23.684 21 24 20.69 24 20.3077V3.69231C24 3.30996 23.684 3 23.2941 3Z" fill="#F8F8F8"/>
<path d="M3.52943 18.2308C3.34222 18.2308 3.16267 18.1578 3.0303 18.028C2.89792 17.8982 2.82355 17.7221 2.82355 17.5385V15.4615C2.82355 15.2779 2.89792 15.1018 3.0303 14.972C3.16267 14.8422 3.34222 14.7692 3.52943 14.7692C3.71664 14.7692 3.89619 14.8422 4.02856 14.972C4.16094 15.1018 4.23531 15.2779 4.23531 15.4615V17.5385C4.23531 17.7221 4.16094 17.8982 4.02856 18.028C3.89619 18.1578 3.71664 18.2308 3.52943 18.2308Z" fill="#B0B0B0"/>
<path d="M5.64706 18.2308C5.45985 18.2308 5.2803 18.1578 5.14793 18.028C5.01555 17.8982 4.94118 17.7221 4.94118 17.5385V15.4615C4.94118 15.2779 5.01555 15.1018 5.14793 14.972C5.2803 14.8422 5.45985 14.7692 5.64706 14.7692C5.83427 14.7692 6.01382 14.8422 6.14619 14.972C6.27857 15.1018 6.35294 15.2779 6.35294 15.4615V17.5385C6.35294 17.7221 6.27857 17.8982 6.14619 18.028C6.01382 18.1578 5.83427 18.2308 5.64706 18.2308Z" fill="#B0B0B0"/>
<path d="M9.17648 18.2308C8.98927 18.2308 8.80972 18.1578 8.67734 18.028C8.54497 17.8982 8.4706 17.7221 8.4706 17.5385V15.4615C8.4706 15.2779 8.54497 15.1018 8.67734 14.972C8.80972 14.8422 8.98927 14.7692 9.17648 14.7692C9.36369 14.7692 9.54323 14.8422 9.67561 14.972C9.80799 15.1018 9.88236 15.2779 9.88236 15.4615V17.5385C9.88236 17.7221 9.80799 17.8982 9.67561 18.028C9.54323 18.1578 9.36369 18.2308 9.17648 18.2308Z" fill="#B0B0B0"/>
<path d="M11.2941 18.2308C11.1069 18.2308 10.9274 18.1578 10.795 18.028C10.6626 17.8982 10.5882 17.7221 10.5882 17.5385V15.4615C10.5882 15.2779 10.6626 15.1018 10.795 14.972C10.9274 14.8422 11.1069 14.7692 11.2941 14.7692C11.4813 14.7692 11.6609 14.8422 11.7933 14.972C11.9256 15.1018 12 15.2779 12 15.4615V17.5385C12 17.7221 11.9256 17.8982 11.7933 18.028C11.6609 18.1578 11.4813 18.2308 11.2941 18.2308Z" fill="#B0B0B0"/>
<path d="M13.4118 18.2308C13.2246 18.2308 13.045 18.1578 12.9126 18.028C12.7803 17.8982 12.7059 17.7221 12.7059 17.5385V15.4615C12.7059 15.2779 12.7803 15.1018 12.9126 14.972C13.045 14.8422 13.2246 14.7692 13.4118 14.7692C13.599 14.7692 13.7785 14.8422 13.9109 14.972C14.0433 15.1018 14.1177 15.2779 14.1177 15.4615V17.5385C14.1177 17.7221 14.0433 17.8982 13.9109 18.028C13.7785 18.1578 13.599 18.2308 13.4118 18.2308Z" fill="#B0B0B0"/>
<path d="M16.2353 18.2308C16.0481 18.2308 15.8685 18.1578 15.7362 18.028C15.6038 17.8982 15.5294 17.7221 15.5294 17.5385V15.4615C15.5294 15.2779 15.6038 15.1018 15.7362 14.972C15.8685 14.8422 16.0481 14.7692 16.2353 14.7692C16.4225 14.7692 16.602 14.8422 16.7344 14.972C16.8668 15.1018 16.9412 15.2779 16.9412 15.4615V17.5385C16.9412 17.7221 16.8668 17.8982 16.7344 18.028C16.602 18.1578 16.4225 18.2308 16.2353 18.2308Z" fill="#B0B0B0"/>
<path d="M18.3529 18.2308C18.1657 18.2308 17.9862 18.1578 17.8538 18.028C17.7214 17.8982 17.6471 17.7221 17.6471 17.5385V15.4615C17.6471 15.2779 17.7214 15.1018 17.8538 14.972C17.9862 14.8422 18.1657 14.7692 18.3529 14.7692C18.5402 14.7692 18.7197 14.8422 18.8521 14.972C18.9845 15.1018 19.0588 15.2779 19.0588 15.4615V17.5385C19.0588 17.7221 18.9845 17.8982 18.8521 18.028C18.7197 18.1578 18.5402 18.2308 18.3529 18.2308Z" fill="#B0B0B0"/>
<path d="M20.4706 18.2308C20.2834 18.2308 20.1038 18.1578 19.9715 18.028C19.8391 17.8982 19.7647 17.7221 19.7647 17.5385V15.4615C19.7647 15.2779 19.8391 15.1018 19.9715 14.972C20.1038 14.8422 20.2834 14.7692 20.4706 14.7692C20.6578 14.7692 20.8373 14.8422 20.9697 14.972C21.1021 15.1018 21.1765 15.2779 21.1765 15.4615V17.5385C21.1765 17.7221 21.1021 17.8982 20.9697 18.028C20.8373 18.1578 20.6578 18.2308 20.4706 18.2308Z" fill="#B0B0B0"/>
<path d="M21.1765 5.76923H15.5294C15.1396 5.76923 14.8235 6.07919 14.8235 6.46154V12C14.8235 12.3823 15.1396 12.6923 15.5294 12.6923H21.1765C21.5663 12.6923 21.8823 12.3823 21.8823 12V6.46154C21.8823 6.07919 21.5663 5.76923 21.1765 5.76923Z" fill="#FCE797"/>
<path d="M17.5588 8.97115H17.4706C17.2834 8.97115 17.1038 8.89821 16.9715 8.76838C16.8391 8.63855 16.7647 8.46246 16.7647 8.27884C16.7647 8.09523 16.8391 7.91914 16.9715 7.78931C17.1038 7.65948 17.2834 7.58654 17.4706 7.58654H17.5588C17.746 7.58654 17.9256 7.65948 18.058 7.78931C18.1903 7.91914 18.2647 8.09523 18.2647 8.27884C18.2647 8.46246 18.1903 8.63855 18.058 8.76838C17.9256 8.89821 17.746 8.97115 17.5588 8.97115Z" fill="#D23F34"/>
<path d="M19.2353 10.6154H19.1471C18.9599 10.6154 18.7803 10.5424 18.6479 10.4126C18.5156 10.2828 18.4412 10.1067 18.4412 9.92308C18.4412 9.73947 18.5156 9.56337 18.6479 9.43354C18.7803 9.30371 18.9599 9.23077 19.1471 9.23077H19.2353C19.4225 9.23077 19.6021 9.30371 19.7344 9.43354C19.8668 9.56337 19.9412 9.73947 19.9412 9.92308C19.9412 10.1067 19.8668 10.2828 19.7344 10.4126C19.6021 10.5424 19.4225 10.6154 19.2353 10.6154Z" fill="#D23F34"/>
<path d="M17.5588 10.6154H17.4706C17.2834 10.6154 17.1038 10.5424 16.9715 10.4126C16.8391 10.2828 16.7647 10.1067 16.7647 9.92308C16.7647 9.73947 16.8391 9.56337 16.9715 9.43354C17.1038 9.30371 17.2834 9.23077 17.4706 9.23077H17.5588C17.746 9.23077 17.9256 9.30371 18.058 9.43354C18.1903 9.56337 18.2647 9.73947 18.2647 9.92308C18.2647 10.1067 18.1903 10.2828 18.058 10.4126C17.9256 10.5424 17.746 10.6154 17.5588 10.6154Z" fill="#D23F34"/>
<path d="M19.2353 8.97115H19.1471C18.9598 8.97115 18.7803 8.89821 18.6479 8.76838C18.5155 8.63855 18.4412 8.46246 18.4412 8.27884C18.4412 8.09523 18.5155 7.91914 18.6479 7.78931C18.7803 7.65948 18.9598 7.58654 19.1471 7.58654H19.2353C19.4225 7.58654 19.6021 7.65948 19.7344 7.78931C19.8668 7.91914 19.9412 8.09523 19.9412 8.27884C19.9412 8.46246 19.8668 8.63855 19.7344 8.76838C19.6021 8.89821 19.4225 8.97115 19.2353 8.97115Z" fill="#D23F34"/>
<path d="M12.4081 7.84615H9.03311C8.88393 7.84615 8.74085 7.77321 8.63536 7.64338C8.52987 7.51355 8.47061 7.33746 8.47061 7.15384C8.47061 6.97023 8.52987 6.79414 8.63536 6.66431C8.74085 6.53448 8.88393 6.46154 9.03311 6.46154H12.4081C12.5573 6.46154 12.7004 6.53448 12.8059 6.66431C12.9113 6.79414 12.9706 6.97023 12.9706 7.15384C12.9706 7.33746 12.9113 7.51355 12.8059 7.64338C12.7004 7.77321 12.5573 7.84615 12.4081 7.84615Z" fill="#D6D6D6"/>
<path d="M10.5883 9.92308H3.52943C3.34222 9.92308 3.16267 9.85014 3.0303 9.72031C2.89792 9.59047 2.82355 9.41438 2.82355 9.23077C2.82355 9.04716 2.89792 8.87107 3.0303 8.74124C3.16267 8.6114 3.34222 8.53846 3.52943 8.53846H10.5883C10.7755 8.53846 10.955 8.6114 11.0874 8.74124C11.2198 8.87107 11.2941 9.04716 11.2941 9.23077C11.2941 9.41438 11.2198 9.59047 11.0874 9.72031C10.955 9.85014 10.7755 9.92308 10.5883 9.92308Z" fill="#D6D6D6"/>
<path d="M9.17649 12H3.52943C3.34222 12 3.16267 11.9271 3.0303 11.7972C2.89792 11.6674 2.82355 11.4913 2.82355 11.3077C2.82355 11.1241 2.89792 10.948 3.0303 10.8182C3.16267 10.6883 3.34222 10.6154 3.52943 10.6154H9.17649C9.3637 10.6154 9.54324 10.6883 9.67562 10.8182C9.808 10.948 9.88237 11.1241 9.88237 11.3077C9.88237 11.4913 9.808 11.6674 9.67562 11.7972C9.54324 11.9271 9.3637 12 9.17649 12Z" fill="#D6D6D6"/>
<path d="M12.4059 12H10.7118C10.562 12 10.4184 11.9271 10.3125 11.7972C10.2066 11.6674 10.1471 11.4913 10.1471 11.3077C10.1471 11.1241 10.2066 10.948 10.3125 10.8182C10.4184 10.6883 10.562 10.6154 10.7118 10.6154H12.4059C12.5557 10.6154 12.6993 10.6883 12.8052 10.8182C12.9111 10.948 12.9706 11.1241 12.9706 11.3077C12.9706 11.4913 12.9111 11.6674 12.8052 11.7972C12.6993 11.9271 12.5557 12 12.4059 12Z" fill="#D6D6D6"/>
<path d="M7.05884 7.84615H3.52943C3.34222 7.84615 3.16267 7.77321 3.0303 7.64338C2.89792 7.51355 2.82355 7.33746 2.82355 7.15384C2.82355 6.97023 2.89792 6.79414 3.0303 6.66431C3.16267 6.53448 3.34222 6.46154 3.52943 6.46154H7.05884C7.24605 6.46154 7.4256 6.53448 7.55798 6.66431C7.69035 6.79414 7.76472 6.97023 7.76472 7.15384C7.76472 7.33746 7.69035 7.51355 7.55798 7.64338C7.4256 7.77321 7.24605 7.84615 7.05884 7.84615Z" fill="#D6D6D6"/>
</svg>
