<svg width="24" height="24" viewBox="0 0 24 24" fill="none" xmlns="http://www.w3.org/2000/svg">
<g clip-path="url(#clip0_5_431)">
<path d="M23.5185 16.4356H21.9765V18.191H23.5185C23.6571 18.191 23.7694 18.081 23.7694 17.9454V16.6813C23.7694 16.5456 23.6571 16.4356 23.5185 16.4356Z" fill="#FCE797"/>
<path d="M23.5185 19.6232H21.9765V21.3786H23.5185C23.6571 21.3786 23.7694 21.2686 23.7694 21.133V19.8689C23.7694 19.7332 23.6571 19.6232 23.5185 19.6232Z" fill="#FCE797"/>
<path d="M20.4523 16.4356H22.014V21.3787H20.4523V16.4356Z" fill="#F9D266"/>
<path d="M4.29717 9.99244V6.21408C4.29717 4.37761 5.79122 2.88356 7.62769 2.88356C9.46416 2.88356 10.9582 4.37766 10.9582 6.21408V9.99244H12.7072V6.21408C12.7072 3.40875 10.433 1.13461 7.62769 1.13461C4.82236 1.13461 2.54822 3.40875 2.54822 6.21408V9.99244H4.29717Z" fill="#EDEDED"/>
<path d="M8.13473 1.15973C7.96795 1.14319 7.79883 1.13461 7.62769 1.13461C4.82236 1.13461 2.54822 3.40875 2.54822 6.21408V9.99244H3.56231V6.21408C3.56231 3.57989 5.56753 1.41417 8.13473 1.15973V1.15973Z" fill="#D6D6D6"/>
<path d="M8.64178 2.88356C8.46942 2.88356 8.30011 2.89674 8.13474 2.9221C9.73144 3.16702 10.9582 4.54997 10.9582 6.21408V9.99244H11.9723V6.21408C11.9723 4.37766 10.4783 2.88356 8.64178 2.88356V2.88356Z" fill="#D6D6D6"/>
<path d="M20.404 10.6439H18.8648L18.7655 10.7647V21.9877C18.7655 22.4724 19.1584 22.8653 19.6432 22.8653C20.1279 22.8653 20.5208 22.4724 20.5208 21.9877V10.7647L20.404 10.6439Z" fill="#FCE797"/>
<path d="M19.7956 21.9877V10.7647L19.895 10.644H18.8648L18.7655 10.7647V21.9877C18.7655 22.4724 19.1584 22.8654 19.6432 22.8654C19.8359 22.8654 20.0135 22.8026 20.1583 22.6972C19.9388 22.5377 19.7956 22.2797 19.7956 21.9877Z" fill="#F9D266"/>
<path d="M20.9312 8.40248L20.561 8.157H18.6938L18.3236 8.4105L18.2854 8.52839V10.2063C18.2854 10.5187 18.5386 10.7719 18.851 10.7719H20.4354C20.7478 10.7719 21.001 10.5187 21.001 10.2063V8.52778L20.9312 8.40248Z" fill="#F9D266"/>
<path d="M19.6432 10.2063V8.157H18.6938L18.3236 8.4105L18.2854 8.52839V10.2063C18.2854 10.5187 18.5386 10.7719 18.851 10.7719H20.2088C19.8964 10.7719 19.6432 10.5187 19.6432 10.2063V10.2063Z" fill="#CE9A6B"/>
<path d="M22.3136 4.38858C21.9702 4.30931 21.7472 3.98062 21.7984 3.63192C21.8193 3.48947 21.8264 3.34251 21.8183 3.19247C21.7597 2.10478 20.8862 1.21598 19.7996 1.14009C18.5258 1.05112 17.4647 2.05819 17.4647 3.31303C17.4647 3.42848 17.4737 3.54183 17.491 3.6524C17.5446 3.99459 17.3151 4.31039 16.9774 4.38754C15.9922 4.61269 15.2524 5.51034 15.2875 6.58462C15.3249 7.73025 16.2664 8.66217 17.4123 8.68908C17.8448 8.6992 18.2493 8.58309 18.592 8.37515C18.7079 8.30484 18.8417 8.26973 18.9773 8.26973H20.3123C20.4487 8.26973 20.583 8.30559 20.6995 8.37628C20.9855 8.54986 21.3138 8.65959 21.6647 8.68415C22.9388 8.77336 24 7.76625 24 6.51126C24 5.47204 23.2744 4.61034 22.3136 4.38858V4.38858ZM20.78 6.7424C20.6271 6.71104 20.4705 6.69497 20.3124 6.69497H18.9773C18.8175 6.69497 18.6592 6.71133 18.5048 6.74325C17.8197 6.88486 17.4786 5.98134 18.0344 5.62697C18.5213 5.31656 18.8712 4.82869 19.0087 4.27369C19.1768 3.59447 20.1158 3.59934 20.2846 4.27003C20.4243 4.82484 20.7725 5.31272 21.2543 5.62397C21.8078 5.98153 21.4669 6.88317 20.78 6.7424Z" fill="#FCE797"/>
<path d="M16.3981 7.0192C16.363 5.94492 17.1029 5.04726 18.088 4.82212C18.4257 4.74497 18.6552 4.42917 18.6016 4.08698C18.5843 3.97641 18.5753 3.86306 18.5753 3.74761C18.5753 2.49276 19.6364 1.4857 20.9102 1.57467C20.9264 1.5758 20.9422 1.57767 20.9583 1.57917C20.6311 1.3298 20.2324 1.17028 19.7996 1.14005C18.5257 1.05108 17.4647 2.05814 17.4647 3.31298C17.4647 3.42844 17.4737 3.54178 17.491 3.65236C17.5446 3.99455 17.315 4.31034 16.9774 4.3875C15.9922 4.61264 15.2524 5.5103 15.2875 6.58458C15.3233 7.67981 16.1855 8.57911 17.2625 8.67966C16.7561 8.29448 16.4203 7.69401 16.3981 7.0192Z" fill="#F9D266"/>
<path d="M14.2162 9.79926H1.03922C0.465281 9.79926 0 10.2645 0 10.8385V21.8262C0 22.4002 0.465281 22.8654 1.03922 22.8654H14.2162C14.7902 22.8654 15.2555 22.4002 15.2555 21.8262V10.8385C15.2554 10.2645 14.7901 9.79926 14.2162 9.79926V9.79926Z" fill="#FCE797"/>
<path d="M2.42583 21.8262V10.8385C2.42583 10.2645 2.89111 9.79926 3.46505 9.79926H1.03922C0.465281 9.79926 0 10.2645 0 10.8385V21.8262C0 22.4002 0.465281 22.8654 1.03922 22.8654H3.46505C2.89111 22.8654 2.42583 22.4001 2.42583 21.8262V21.8262Z" fill="#F9D266"/>
<path d="M8.36006 16.6349C8.28094 16.4223 8.35664 16.1816 8.54578 16.0564C8.99601 15.7583 9.29297 15.2474 9.29297 14.667C9.29297 13.7078 8.48198 12.9381 7.50825 13.0059C6.69351 13.0627 6.03155 13.7184 5.9677 14.5327C5.91811 15.1648 6.22181 15.7297 6.70228 16.0515C6.89311 16.1792 6.97626 16.4175 6.89615 16.6328L6.16026 18.6101C6.07364 18.8429 6.24576 19.0905 6.49411 19.0905H8.76136C9.00965 19.0905 9.18178 18.8429 9.0952 18.6101L8.36006 16.6349Z" fill="#CE9A6B"/>
<path d="M7.60894 18.6102L8.34483 16.6328C8.34759 16.6254 8.3497 16.6178 8.35209 16.6103C8.32134 16.5123 8.32224 16.4098 8.35144 16.316C8.31755 16.2109 8.24841 16.1167 8.15095 16.0515C7.67053 15.7298 7.36683 15.1648 7.41638 14.5327C7.46344 13.9329 7.83516 13.4195 8.35331 13.1678C8.10066 13.0453 7.81242 12.9847 7.50825 13.006C6.69347 13.0628 6.03155 13.7185 5.9677 14.5327C5.91816 15.1648 6.22186 15.7298 6.70228 16.0515C6.89311 16.1793 6.97627 16.4176 6.89616 16.6328L6.16027 18.6102C6.07364 18.8429 6.24577 19.0906 6.49406 19.0906H7.94274C7.69444 19.0906 7.52236 18.8429 7.60894 18.6102Z" fill="#A37454"/>
</g>
<defs>
<clipPath id="clip0_5_431">
<rect width="24" height="24" fill="white"/>
</clipPath>
</defs>
</svg>
