<svg width="24" height="24" viewBox="0 0 24 24" fill="none" xmlns="http://www.w3.org/2000/svg">
<path d="M18.3303 21.7644H5.90816C5.37475 21.7644 4.94236 21.332 4.94236 20.7986V2.96296H3.34165C2.7572 2.96296 2.28343 3.43673 2.28343 4.02118V22.9418C2.28343 23.5262 2.7572 24 3.34165 24H17.2721C17.8566 24 18.3304 23.5262 18.3304 22.9418V21.7644H18.3303Z" fill="#C0DAFC"/>
<path d="M4.94236 2.96296V20.7986C4.94236 21.332 5.37475 21.7644 5.90816 21.7644H18.3303V22.9418C18.3303 23.1479 18.2712 23.3402 18.1692 23.5028H5.03479C4.45039 23.5028 3.97662 23.029 3.97662 22.4446V21.672L4.45951 3.52394L4.94236 2.96296Z" fill="#78A0D4"/>
<path d="M20.0234 20.0712H7.60129C7.06788 20.0712 6.6355 19.6389 6.6355 19.1054V1.69313H5.03479C4.45039 1.69313 3.97662 2.16691 3.97662 2.75136V21.672C3.97662 22.2564 4.45039 22.7302 5.03479 22.7302H18.9653C19.5497 22.7302 20.0235 22.2564 20.0235 21.672V20.0712H20.0234Z" fill="#FCE797"/>
<path d="M6.6355 1.69313V19.1054C6.6355 19.6389 7.06788 20.0712 7.60129 20.0712H20.0234V21.6719C20.0234 21.7581 20.0129 21.8417 19.9935 21.9218H6.72787C6.14347 21.9218 5.6697 21.4481 5.6697 20.8636V19.9788L6.1526 18.6429V1.94303L6.6355 1.69313Z" fill="#F9D266"/>
<path d="M20.5618 21.037H6.72787C6.14347 21.037 5.6697 20.5633 5.6697 19.9788V1.05822C5.6697 0.473771 6.14347 0 6.72787 0H17.4296L21.6199 4.28687V19.9788C21.62 20.5633 21.1462 21.037 20.5618 21.037V21.037Z" fill="#FAFAFA"/>
<path d="M20.2679 2.83818V19.9788C20.2679 20.5633 19.7941 21.037 19.2097 21.037H20.6584C21.2428 21.037 21.7166 20.5633 21.7166 19.9788V4.28687L20.2679 2.83818Z" fill="#EDEDED"/>
<path d="M21.7166 4.28687H18.4877C17.9034 4.28687 17.4297 3.8132 17.4297 3.22885V0L21.7166 4.28687Z" fill="#D6D6D6"/>
<path d="M18.5259 8.19636H8.8604C8.66039 8.19636 8.49823 8.0342 8.49823 7.83419C8.49823 7.63417 8.66039 7.47202 8.8604 7.47202H18.5259C18.7259 7.47202 18.8881 7.63417 18.8881 7.83419C18.8881 8.0342 18.7259 8.19636 18.5259 8.19636Z" fill="#D6D6D6"/>
<path d="M18.5259 10.8807H8.8604C8.66039 10.8807 8.49823 10.7185 8.49823 10.5185C8.49823 10.3185 8.66039 10.1563 8.8604 10.1563H18.5259C18.7259 10.1563 18.8881 10.3185 18.8881 10.5185C18.8881 10.7185 18.7259 10.8807 18.5259 10.8807Z" fill="#D6D6D6"/>
<path d="M18.5259 13.565H8.8604C8.66039 13.565 8.49823 13.4029 8.49823 13.2029C8.49823 13.0028 8.66039 12.8407 8.8604 12.8407H18.5259C18.7259 12.8407 18.8881 13.0028 18.8881 13.2029C18.8881 13.4029 18.7259 13.565 18.5259 13.565Z" fill="#D6D6D6"/>
</svg>
