<svg width="24" height="24" viewBox="0 0 24 24" fill="none" xmlns="http://www.w3.org/2000/svg">
<g clip-path="url(#clip0_5_434)">
<path d="M18.4395 8.83064C15.6862 10.4478 19.9935 11.1809 21.7285 9.45928C22.0028 9.13196 22.2227 8.78757 22.3913 8.43178C22.3913 6.85149 20.8465 6.65185 19.8693 7.69627C19.5216 8.17083 18.9587 8.55914 18.4395 8.83064V8.83064Z" fill="#CE9A6B"/>
<path d="M11.95 4.58494C11.7803 5.0033 11.6395 5.43736 11.5329 5.87653C11.0886 8.27714 13.3633 9.66446 13.8787 8.2223C13.8148 7.73611 13.857 7.17806 13.9814 6.61425C13.9814 4.28452 12.4115 3.88927 11.95 4.58494V4.58494Z" fill="#CE9A6B"/>
<path d="M20.9629 2.44674C18.8068 0.290252 15.755 -0.15356 13.5989 2.0025C12.9288 2.67263 12.3562 3.58341 11.95 4.58499C12.0214 4.65347 11.7112 4.34419 13.9814 6.6143C14.2159 5.55141 14.7428 4.46803 15.4036 3.80719C16.9789 2.23191 18.8078 3.90061 19.1582 4.25147C19.4863 4.57908 20.9662 6.19936 19.8693 7.69631C20.7412 7.81402 21.5941 8.06222 22.3913 8.43183C23.3184 6.47583 22.69 4.17394 20.9629 2.44674V2.44674Z" fill="#F9D266"/>
<path d="M16.5159 9.14874C16.1571 9.25706 15.8045 9.39244 15.4612 9.55561L15.3015 9.64561C13.9924 10.7453 15.5088 12.9554 17.836 12.1801H17.8364C18.2189 11.934 18.6615 11.8083 19.1079 11.8094C20.5259 11.1809 19.8725 8.68045 16.5159 9.14874V9.14874Z" fill="#F9D266"/>
<path d="M23.2215 10.2162L22.1887 9.67904C20.4308 8.76357 18.3895 8.58291 16.5159 9.14874C19.0364 11.6693 18.9151 11.5243 19.108 11.8094C19.4791 11.8102 19.8528 11.8983 20.1968 12.0804L21.7682 12.9128C22.3814 13.2371 23.1388 13.0803 23.5724 12.5387L23.6832 12.3998C24.2519 11.6889 24.0292 10.6363 23.2215 10.2162V10.2162Z" fill="#FCE797"/>
<path d="M8.94036 15.7774C9.00467 16.2668 8.96235 16.8244 8.83836 17.3861C8.43899 20.8586 10.2175 20.3479 10.8693 19.415C11.039 18.9967 11.18 18.5627 11.2866 18.1237C11.5329 15.5651 9.32755 14.082 8.94036 15.7774V15.7774Z" fill="#CE9A6B"/>
<path d="M6.02353 14.5712C6.58509 14.4473 7.14267 14.4049 7.63228 14.4692C9.52392 13.9233 7.47516 11.7455 5.28605 12.123C4.84692 12.2295 4.41286 12.3704 3.99455 12.5401C3.17597 13.0038 2.08101 15.2966 6.02353 14.5712Z" fill="#CE9A6B"/>
<path d="M8.83837 17.3861C8.60264 18.4539 8.0715 19.5365 7.41539 20.193C5.84011 21.7683 4.01123 20.0992 3.66084 19.7488C3.31045 19.3984 1.64128 17.5695 3.21656 15.9942C3.87271 15.3385 4.95525 14.8071 6.02348 14.5713C3.75187 12.2996 4.06275 12.6113 3.9945 12.5402C2.99287 12.9466 2.08204 13.5195 1.41192 14.1896C-0.744098 16.3456 -0.299864 19.3974 1.8562 21.5535C4.01221 23.7095 7.06406 24.1538 9.22012 21.9978C9.89029 21.3276 10.4629 20.4167 10.8694 19.415C10.7935 19.3421 11.1197 19.6673 8.83837 17.3861V17.3861Z" fill="#F9D266"/>
<path d="M13.7664 16.4389C14.3336 17.0061 15.2526 17.0061 15.8199 16.4389L15.8484 16.4099C16.4156 15.8432 16.4156 14.9237 15.8484 14.357L16.38 13.8387L10.3221 7.68797L9.75004 8.25863C8.38921 6.89663 6.29235 8.96489 7.66804 10.3406L6.97438 11.0356L13.0971 17.1175L13.7664 16.4389Z" fill="#F9D266"/>
<path d="M8.37417 8.99325L8.40323 8.96471C8.96995 8.39752 9.88945 8.39752 10.4562 8.96471L11.0282 8.3941L9.63684 6.97857L9.05268 7.56127C8.48596 6.99408 7.56646 6.99408 6.99974 7.56127L6.97068 7.58981C6.40349 8.157 6.40349 9.07603 6.97068 9.64327L6.27173 10.3435L7.68051 11.7417L8.37417 11.0468C7.80693 10.4795 7.80693 9.56044 8.37417 8.99325V8.99325Z" fill="#CE9A6B"/>
<path d="M17.9018 14.357L17.9309 14.328C18.495 13.7638 18.4973 12.8501 17.9382 12.2823C17.9039 12.2479 17.87 12.2141 17.8361 12.1801H17.836C8.27409 2.61746 16.9009 11.245 12.5381 6.88224C11.8509 6.195 10.0605 5.52891 9.53999 6.05902C9.02915 6.57933 9.77526 8.28328 10.4561 8.96471L15.8484 14.357C16.4156 14.9237 17.3346 14.9237 17.9018 14.357V14.357Z" fill="#FCE797"/>
<path d="M10.4561 6.91125L10.4852 6.88223C11.0519 6.31552 11.9714 6.31552 12.5381 6.88223L11.1346 5.47875C10.5679 4.91203 9.64841 4.91203 9.0817 5.47875L9.05263 5.50777C8.48591 6.07495 8.48591 6.99398 9.05263 7.56122L10.4561 8.9647C9.8894 8.39752 9.8894 7.47844 10.4561 6.91125V6.91125Z" fill="#F9D266"/>
<path d="M13.7374 18.5209L13.7664 18.4924C14.3336 17.9252 14.3336 17.0062 13.7664 16.439L8.37416 11.0467C7.68716 10.3597 5.88655 9.67908 5.36586 10.209C4.8546 10.7292 5.61055 12.4476 6.29216 13.1287C7.71815 14.5555 9.81655 16.6534 11.6844 18.5209C12.2511 19.0881 13.1706 19.0881 13.7374 18.5209V18.5209Z" fill="#FCE797"/>
<path d="M6.29216 11.0757L6.32071 11.0467C6.8879 10.4795 7.80693 10.4795 8.37416 11.0467L6.97068 9.64322C6.40349 9.07603 5.48446 9.07603 4.91722 9.64322L4.88868 9.67224C4.32149 10.239 4.32149 11.1585 4.88868 11.7252L6.29216 13.1287C5.72497 12.5619 5.72497 11.6424 6.29216 11.0757V11.0757Z" fill="#F9D266"/>
</g>
<defs>
<clipPath id="clip0_5_434">
<rect width="24" height="24" fill="white"/>
</clipPath>
</defs>
</svg>
