<svg width="24" height="24" viewBox="0 0 24 24" fill="none" xmlns="http://www.w3.org/2000/svg">
<g clip-path="url(#clip0_5_432)">
<path d="M0.75 13.125V19.875C0.75 21.7391 4.44375 23.25 9 23.25H20.25L19.125 22.125L20.25 21L19.125 19.875L20.25 18.75L19.125 17.625L20.25 16.5H9C4.44375 16.5 0.75 14.9891 0.75 13.125Z" fill="#78A0D4"/>
<path d="M17.25 13.125V16.5H9C13.5562 16.5 17.25 14.9891 17.25 13.125Z" fill="#5E87CA"/>
<path d="M6.75 9.87713C7.49694 9.79164 8.24818 9.74919 9 9.75C13.5562 9.75 17.25 11.2609 17.25 13.125V14.1229C20.7128 13.7224 23.25 12.42 23.25 10.875V4.125C23.25 5.98913 19.5562 7.5 15 7.5C10.4438 7.5 6.75 5.98913 6.75 4.125V9.87713Z" fill="#F9D266"/>
<path d="M20.25 6.72863C19.7584 6.89225 19.2575 7.02661 18.75 7.131V13.881C19.2575 13.7767 19.7584 13.6423 20.25 13.4786V6.72863Z" fill="#B52F28"/>
<path d="M19.5 12.7268V6.95175C19.2581 7.01588 19.0084 7.07588 18.75 7.12988V12.9499C19.0103 12.882 19.2615 12.8074 19.5 12.7268Z" fill="#D23F34"/>
<path d="M9 16.5C13.5563 16.5 17.25 14.989 17.25 13.125C17.25 11.261 13.5563 9.75 9 9.75C4.44365 9.75 0.75 11.261 0.75 13.125C0.75 14.989 4.44365 16.5 9 16.5Z" fill="#C0DAFC"/>
<path d="M9 14.25C10.6569 14.25 12 13.7463 12 13.125C12 12.5037 10.6569 12 9 12C7.34315 12 6 12.5037 6 13.125C6 13.7463 7.34315 14.25 9 14.25Z" fill="#CE9A6B"/>
<path d="M9 14.25C10.5606 14.25 11.8256 13.9142 11.8256 13.5C11.8256 13.0858 10.5606 12.75 9 12.75C7.43945 12.75 6.17438 13.0858 6.17438 13.5C6.17438 13.9142 7.43945 14.25 9 14.25Z" fill="#A37454"/>
<path d="M15 7.5C19.5563 7.5 23.25 5.98896 23.25 4.125C23.25 2.26104 19.5563 0.75 15 0.75C10.4437 0.75 6.75 2.26104 6.75 4.125C6.75 5.98896 10.4437 7.5 15 7.5Z" fill="#FCE797"/>
<path d="M15 5.25C16.6569 5.25 18 4.74632 18 4.125C18 3.50368 16.6569 3 15 3C13.3431 3 12 3.50368 12 4.125C12 4.74632 13.3431 5.25 15 5.25Z" fill="#CE9A6B"/>
<path d="M15 5.25C16.5606 5.25 17.8256 4.91421 17.8256 4.5C17.8256 4.08579 16.5606 3.75 15 3.75C13.4395 3.75 12.1744 4.08579 12.1744 4.5C12.1744 4.91421 13.4395 5.25 15 5.25Z" fill="#A37454"/>
</g>
<defs>
<clipPath id="clip0_5_432">
<rect width="24" height="24" fill="white"/>
</clipPath>
</defs>
</svg>
